# xmcd
#
# Track frame offsets:
#	150
#	28402
#	58503
#	94341
#	127225
#	152909
#	176967
#	191752
#	221172
#	254445
#	268717
#	279960
#	307220
#
# Disc length: 4513 seconds
#
# Revision: 0
# Processed by: cddbd v1.5.1PL0 Copyright (c) Steve Scherf et al.
# Submitted via: EasyCDDAExtractor 8.0.1.1
#
DISCID=d6119f0d
DTITLE=Various Artist - DKD D-Noy Power Pack #3
DYEAR=2004
DGENRE=Dance
TTITLE0=Double T - Techno Funkiun (Club Mix) 
TTITLE1=68 Beats - The Funk Is Funking Up My Mind (Main Mix)
TTITLE2=68 Beats - The Funk Is Funking Up My Mind (Dark Mix)
TTITLE3=68 Beats - The Funk Is Funking Up My Mind (Wicked Mix)
TTITLE4=Spider - Moving (Original Mix)
TTITLE5=Spider - Moving (Dub Mix)
TTITLE6=Spider - Moving (Radio Mix)
TTITLE7=Altar - Sexercise (Club Mix)
TTITLE8=Altar - Sexercise (Double Club Mix)
TTITLE9=Electroluv - Stand Up (Club Mix)
TTITLE10=Electroluv - Stand Up (Radio Mix)
TTITLE11=Jorge jaramillo and Sheldon Romero - When I'm Alone With U (Club Mix)
TTITLE12=Boostronic - Talk About It (Club Mix)
EXTD=
EXTT0=
EXTT1=
EXTT2=
EXTT3=
EXTT4=
EXTT5=
EXTT6=
EXTT7=
EXTT8=
EXTT9=
EXTT10=
EXTT11=
EXTT12=
PLAYORDER=
